# Blender v2.82 (sub 7) OBJ File: 'Fantasy Objects.blend'
# www.blender.org
mtllib stone.mtl
o Stone_Large_01_B_Cube.032
v -6.572013 -0.083521 4.428050
v -3.087843 -0.083521 0.105663
v -2.903713 2.134729 0.428481
v -0.654632 -0.083521 5.171675
v 1.402845 -0.083521 0.867729
v -4.280753 2.134729 3.331940
v 0.247718 -0.083521 4.222969
v -6.399866 2.134729 1.435888
v -6.583996 -0.083521 1.113070
v -8.394159 -0.083521 3.146001
v -4.902044 1.633646 4.029691
v -5.187694 1.439891 4.265457
v -1.296118 1.657539 4.517390
v -1.190834 1.437871 4.787780
v 0.534021 1.886266 1.215828
v 0.615170 2.134729 1.554378
v -0.102229 1.880076 4.104921
v -0.068943 2.134729 3.829277
v -0.314422 2.134729 3.937715
v 3.423555 1.689316 2.108338
v 3.207570 1.943930 2.404828
v 3.476774 1.668720 2.275108
v 4.048197 -0.083521 1.735909
v 4.096491 -0.083521 1.901641
v 2.607011 -0.083521 3.354341
v 2.452038 -0.083521 3.485438
v 1.948029 1.948796 3.157886
v 2.102403 1.692687 3.368342
v 2.262166 1.668720 3.238014
v -3.598128 3.778821 3.097869
v -3.389555 4.042998 2.804295
v -2.608625 3.784714 0.631547
v -2.665777 4.042998 0.930835
v -0.202628 3.333834 1.481496
v -0.450224 3.588358 1.814688
v -0.070650 3.291855 1.839618
v -0.681507 3.334658 3.087136
v -1.066577 3.595773 2.916052
v -0.961929 3.341333 3.244366
v -7.630563 2.322599 2.927372
v -6.882543 3.010609 2.885499
v -6.520155 3.271682 2.566992
v -7.035131 2.941774 2.618991
v -5.898989 3.301668 1.852916
v -6.140697 2.941349 1.614236
v -5.669022 -0.083521 5.306375
v -1.067768 -0.083521 5.719583
v -5.244988 1.052299 4.704288
v -1.248129 1.050279 5.226612
vt 0.325230 0.299663
vt 0.467868 0.329036
vt 0.402790 0.568144
vt 0.256657 0.522191
vt 0.724723 0.147330
vt 0.816025 0.020693
vt 0.858853 0.151459
vt 0.872987 0.244001
vt 0.331818 0.077206
vt 0.236363 0.277087
vt 0.233335 0.126296
vt 0.675425 0.087301
vt 0.671704 0.348161
vt 0.611428 0.381252
vt 0.618001 0.144254
vt 0.675425 0.565580
vt 0.467868 0.023687
vt 0.058577 0.033223
vt 0.227622 0.010604
vt 0.203576 0.104036
vt 0.110974 0.129111
vt 0.126901 0.308693
vt 0.214591 0.277904
vt 0.181868 0.473450
vt 0.128370 0.513978
vt 0.675690 0.301572
vt 0.701824 0.162879
vt 0.864955 0.271759
vt 0.831942 0.391292
vt 0.999868 0.306895
vt 0.892497 0.258716
vt 0.883776 0.162805
vt 0.999868 0.168136
vt 0.000132 0.370729
vt 0.103125 0.321069
vt 0.102278 0.540427
vt 0.064938 0.602497
vt 0.836561 0.007414
vt 0.972344 0.000132
vt 0.999084 0.155030
vt 0.881886 0.149741
vt 0.001512 0.105287
vt 0.090044 0.155020
vt 0.207406 0.493085
vt 0.173531 0.786246
vt 0.116977 0.617852
vt 0.237130 0.553713
vt 0.331882 0.679748
vt 0.128714 0.556132
vt 0.203624 0.500992
vt 0.547308 0.000132
vt 0.658012 0.070425
vt 0.596292 0.134506
vt 0.504560 0.073737
vt 0.203139 0.138162
vt 0.116685 0.163622
vt 0.557320 0.138289
vt 0.479180 0.114716
vt 0.812769 0.003580
vt 0.886871 0.268081
vt 0.228937 0.113771
vt 0.093238 0.143337
vt 0.108851 0.547480
vt 0.589790 0.397276
vt 0.996410 0.317140
vt 0.256125 0.000132
vt 0.043298 0.045419
vt 0.528318 0.631110
vt 0.497283 0.492950
vt 0.552167 0.394138
vt 0.468133 0.416185
vn -0.0309 0.1925 -0.9808
vn -0.0520 0.1777 -0.9827
vn -0.5274 0.1704 -0.8323
vn -0.5324 0.2313 -0.8142
vn 0.5434 0.7998 -0.2547
vn 0.3969 0.7336 0.5516
vn 0.2644 0.8733 0.4090
vn 0.4662 0.8709 0.1553
vn 0.3506 0.3927 -0.8502
vn 0.0327 0.5362 -0.8434
vn 0.5397 0.5662 -0.6230
vn 0.1650 0.6498 0.7419
vn -0.0859 0.5748 0.8137
vn -0.0579 0.8075 0.5871
vn -0.0240 0.7885 0.6145
vn -0.8281 0.5272 0.1905
vn 0.2594 0.2532 -0.9319
vn 0.7509 0.6601 0.0207
vn 0.5551 0.6956 0.4560
vn -0.0483 0.9557 0.2903
vn -0.0024 0.9311 -0.3648
vn -0.3667 0.8390 -0.4020
vn -0.4184 0.9081 0.0144
vn 0.5860 0.5705 -0.5753
vn 0.6852 0.3724 -0.6259
vn 0.9307 0.3133 0.1888
vn 0.8370 0.4693 0.2813
vn 0.5964 0.3549 0.7199
vn 0.6498 0.1498 0.7451
vn -0.1119 0.6048 0.7884
vn -0.3967 0.6387 0.6593
vn 0.3292 0.5081 0.7959
vn 0.4456 0.1863 0.8756
vn 0.5007 0.1520 0.8521
vn 0.4622 0.4402 0.7697
vn 0.1507 0.6085 0.7790
vn -0.4881 0.4786 -0.7298
vn -0.9082 0.3813 0.1724
vn -0.6971 0.6683 -0.2596
vn 0.2528 0.6353 0.7297
vn 0.6732 0.3167 0.6682
vn 0.4245 0.9023 -0.0750
vn 0.2648 0.8905 0.3699
vn 0.3424 0.5751 0.7429
vn 0.3544 0.4515 0.8188
vn -0.2330 0.6998 0.6753
vn -0.5077 0.4140 0.7556
vn -0.3463 0.6265 0.6983
vn -0.3747 0.5152 0.7708
usemtl M_STONE_LARGE_01_B
s 1
f 3/1/1 2/2/2 9/3/3 8/4/4
f 16/5/5 18/6/6 27/7/7 21/8/8
f 15/9/9 3/1/1 32/10/10 34/11/11
f 19/12/12 6/13/13 11/14/14 13/15/15
f 6/13/13 40/16/16 11/14/14
f 2/2/2 3/1/1 15/9/9 5/17/17
f 18/18/6 16/19/5 36/20/18 37/21/19
f 31/22/20 33/23/21 44/24/22 42/25/23
f 5/26/17 15/27/9 20/28/24 23/29/25
f 24/30/26 22/31/27 29/32/28 25/33/29
f 6/34/13 30/35/30 41/36/31 40/37/16
f 17/38/32 7/39/33 26/40/34 28/41/35
f 6/34/13 19/42/12 39/43/36 30/35/30
f 32/10/10 3/1/1 8/4/4 45/44/37
f 10/45/38 40/46/16 8/47/4 9/48/3
f 8/47/4 40/46/16 43/49/39 45/50/37
f 7/51/33 17/52/32 14/53/40 4/54/41
f 35/55/42 33/23/21 31/22/20 38/56/43
f 4/54/41 49/57/44 47/58/45
f 17/38/32 18/6/6 19/59/12
f 20/60/24 21/8/8 22/31/27
f 27/7/7 28/41/35 29/32/28
f 34/61/11 35/55/42 36/20/18
f 37/21/19 38/56/43 39/62/36
f 41/63/31 42/25/23 43/49/39
f 31/22/20 42/25/23 41/36/31 30/35/30
f 19/12/12 13/15/15 14/53/40 17/52/32
f 13/15/15 11/14/14 12/64/46 14/53/40
f 22/31/27 24/30/26 23/65/25 20/60/24
f 21/8/8 27/7/7 29/32/28 22/31/27
f 28/41/35 26/40/34 25/33/29 29/32/28
f 16/5/5 21/8/8 20/28/24 15/27/9
f 17/38/32 28/41/35 27/7/7 18/6/6
f 33/23/21 35/55/42 34/11/11 32/10/10
f 35/55/42 38/56/43 37/21/19 36/20/18
f 30/35/30 39/43/36 38/56/43 31/22/20
f 36/20/18 16/19/5 15/66/9 34/61/11
f 18/18/6 37/21/19 39/62/36 19/67/12
f 42/25/23 44/24/22 45/50/37 43/49/39
f 43/49/39 40/46/16 41/63/31
f 44/24/22 33/23/21 32/10/10 45/44/37
f 11/14/14 40/16/16 12/64/46
f 10/68/38 1/69/47 12/64/46 40/16/16
f 47/58/45 49/57/44 48/70/48 46/71/49
f 14/53/40 12/64/46 48/70/48 49/57/44
f 1/69/47 48/70/48 12/64/46
f 4/54/41 14/53/40 49/57/44
f 1/69/47 46/71/49 48/70/48
